<?xml version="1.0" encoding="UTF-8" standalone="no"?>
<svg width="84px" height="84px" viewBox="0 0 84 84" version="1.1" xmlns="http://www.w3.org/2000/svg" xmlns:xlink="http://www.w3.org/1999/xlink" xmlns:sketch="http://www.bohemiancoding.com/sketch/ns">
    <!-- Generator: Sketch 3.2.2 (9983) - http://www.bohemiancoding.com/sketch -->
    <title>Artboard 10</title>
    <desc>Created with Sketch.</desc>
    <defs></defs>
    <g id="Page-1" stroke="none" stroke-width="1" fill="none" fill-rule="evenodd" sketch:type="MSPage">
        <g id="Artboard-10" sketch:type="MSArtboardGroup">
            <path d="M37.5498747,50.9701749 L24.4922682,77.9875334 C11.1752721,71.4945429 2,57.8250046 2,42.0124666 C2,19.9210767 19.90861,2.01246664 42,2.01246664 C64.09139,2.01246664 82,19.9210767 82,42.0124666 C82,57.8250046 72.8247279,71.4945429 59.5077318,77.9875334 L59.5077318,77.9875334 L46.4501253,50.9701749 C49.7397546,49.3327551 52,45.9365652 52,42.0124666 C52,36.4896191 47.5228475,32.0124666 42,32.0124666 C36.4771525,32.0124666 32,36.4896191 32,42.0124666 C32,45.9365652 34.2602454,49.3327551 37.5498747,50.9701749 Z" id="Oval-26" stroke="#FFFFFF" stroke-width="2" fill="#FFFFFF" sketch:type="MSShapeGroup"></path>
            <path d="M42,82.0124666 C64.09139,82.0124666 82,64.1038566 82,42.0124666 C82,19.9210767 64.09139,2.01246664 42,2.01246664 C19.90861,2.01246664 2,19.9210767 2,42.0124666 C2,64.1038566 19.90861,82.0124666 42,82.0124666 Z" id="Path-2" stroke="#FFFFFF" stroke-width="2" sketch:type="MSShapeGroup"></path>
            <path d="M42,72.0124666 C58.5685425,72.0124666 72,58.5810091 72,42.0124666 C72,25.4439241 58.5685425,12.0124666 42,12.0124666 C25.4314575,12.0124666 12,25.4439241 12,42.0124666 C12,58.5810091 25.4314575,72.0124666 42,72.0124666 Z" id="Path-3" stroke="#FFFFFF" stroke-width="2" sketch:type="MSShapeGroup"></path>
            <path d="M42,62.0124666 C53.045695,62.0124666 62,53.0581616 62,42.0124666 C62,30.9667716 53.045695,22.0124666 42,22.0124666 C30.954305,22.0124666 22,30.9667716 22,42.0124666 C22,53.0581616 30.954305,62.0124666 42,62.0124666 Z" id="Path-4" stroke="#FFFFFF" stroke-width="2" sketch:type="MSShapeGroup"></path>
            <path d="M42,52 C47.5228475,52 52,47.5228475 52,42 C52,36.4771525 47.5228475,32 42,32 C36.4771525,32 32,36.4771525 32,42 C32,47.5228475 36.4771525,52 42,52 Z" id="Path-5" stroke="#FFFFFF" stroke-width="2" sketch:type="MSShapeGroup"></path>
            <path d="M35.4998305,59.7015444 L35.0771109,60.6080695 C24.8234936,55.8387554 17.7148673,45.4454973 17.7148673,33.3919305 C17.7148673,16.823388 31.1463248,3.39193051 47.7148673,3.39193051 C52.2641973,3.39193051 56.5770156,4.40455727 60.4402193,6.21670795 L60.4402193,6.21670795 L60.0174997,7.12323305 C56.2826963,5.37105799 52.1131256,4.39193051 47.7148673,4.39193051 C31.6986096,4.39193051 18.7148673,17.3756728 18.7148673,33.3919305 C18.7148673,45.0442842 25.5872147,55.0915152 35.4998305,59.7015444 Z" id="Oval-29" stroke="#D72C34" sketch:type="MSShapeGroup" transform="translate(39.077543, 32.000000) rotate(64.000000) translate(-39.077543, -32.000000) "></path>
            <path d="M37.774888,53.5595104 L37.4791337,54.1937575 C30.2689256,50.8636299 25.2684805,43.5921313 25.2684805,35.1577991 C25.2684805,23.5746739 34.6995022,14.1846956 46.3332572,14.1846956 C49.5103082,14.1846956 52.5230847,14.8849779 55.2243728,16.1389695 L55.2243728,16.1389695 L54.9286185,16.7732166 C52.3172153,15.5608452 49.4046481,14.8837991 46.3332572,14.8837991 C35.0872941,14.8837991 25.9706397,23.9607781 25.9706397,35.1577991 C25.9706397,43.3112274 30.8046885,50.3405169 37.774888,53.5595104 Z" id="Oval-30" stroke="#D72C34" sketch:type="MSShapeGroup" transform="translate(40.268480, 34.184696) rotate(64.000000) translate(-40.268480, -34.184696) "></path>
            <path d="M24.5852342,5.9797549 L42,42.0124666 L59.4147658,5.9797549 C54.1502183,3.42979854 48.2420828,2 42,2 C35.7579172,2 29.8497817,3.42979854 24.5852342,5.9797549 Z" id="Path-6" stroke="#FFFFFF" stroke-width="2" fill="#FFFFFF" sketch:type="MSShapeGroup"></path>
            <circle id="Oval-33" fill="#D72C34" sketch:type="MSShapeGroup" cx="42" cy="42" r="9"></circle>
        </g>
    </g>
</svg>